<svg id="logo" xmlns="http://www.w3.org/2000/svg" xmlns:xlink="http://www.w3.org/1999/xlink" viewBox="0 0 1000 1000"><defs><style>.cls-1,.cls-2,.cls-3,.cls-4,.cls-5{fill-rule:evenodd;}.cls-1{fill:url(#名称未設定グラデーション_2);}.cls-2{fill:url(#名称未設定グラデーション_4);}.cls-3{fill:url(#名称未設定グラデーション_3);}.cls-4{fill:url(#名称未設定グラデーション_3-2);}.cls-6,.cls-7{fill:none;stroke:#000;}.cls-6{stroke-miterlimit:10;stroke-width:2.2px;}.cls-7{stroke-linejoin:round;stroke-width:0.8px;}</style><linearGradient id="名称未設定グラデーション_2" x1="903.7" y1="275.75" x2="-762.58" y2="1647.49" gradientUnits="userSpaceOnUse"><stop offset="0"/><stop offset="0.24" stop-color="#080808"/><stop offset="0.5" stop-color="#666"/><stop offset="0.76" stop-color="#080808"/><stop offset="1"/></linearGradient><linearGradient id="名称未設定グラデーション_4" x1="-713.44" y1="1434.26" x2="1786.1" y2="-623.39" gradientUnits="userSpaceOnUse"><stop offset="0" stop-color="#666"/><stop offset="0.17" stop-color="#080808"/><stop offset="0.33"/><stop offset="0.49" stop-color="#080808"/><stop offset="0.67" stop-color="#666"/><stop offset="0.84" stop-color="#080808"/><stop offset="1"/></linearGradient><linearGradient id="名称未設定グラデーション_3" x1="1436.87" y1="1737.26" x2="-620.81" y2="-762.31" gradientUnits="userSpaceOnUse"><stop offset="0" stop-color="#f4b183"/><stop offset="0.17" stop-color="#ee8137"/><stop offset="0.33" stop-color="#b0500f"/><stop offset="0.49" stop-color="#ee8137"/><stop offset="0.67" stop-color="#f4b183"/><stop offset="0.84" stop-color="#ee8137"/><stop offset="1" stop-color="#b0500f"/></linearGradient><linearGradient id="名称未設定グラデーション_3-2" x1="-407.53" y1="-713.11" x2="1650.06" y2="1786.42" xlink:href="#名称未設定グラデーション_3"/></defs><path class="cls-1" d="M56.21,944.19c83.88,101.88,386.81-8.9,676.58-247.42,108.69-89.46,200.1-184.18,267.45-273l11.48-16.8-35.13,42.92c-53.92,60.5-117.53,121.78-188.93,180.55-285.5,235-586.8,340.61-672.95,235.94-32.33-39.23-29.8-102.52,1.05-178.6l37.13-74.25-50.4,73.72C35,798.81,14.24,893.27,56.21,944.19Z" transform="translate(-11.72 -12.06)"/><path class="cls-2" d="M967.27,79.93c-83.88-101.88-386.81,8.9-676.63,247.42-108.69,89.46-200,184.18-267.45,273l-11.47,16.8,35.12-42.92c53.92-60.49,117.58-121.78,188.93-180.49,285.5-235,586.8-340.67,673-236,32.28,39.23,29.75,102.52-1,178.66L870.6,410.6,921,336.88C988.44,225.36,1009.19,130.85,967.27,79.93Z" transform="translate(-11.72 -12.06)"/><path class="cls-3" d="M82.49,56.55c-101.9,83.88,8.89,386.8,247.48,676.6,89.46,108.63,184.14,200,273,267.43l16.79,11.48-43-35.12c-60.5-54-121.74-117.58-180.5-189-235-285.44-340.69-586.73-236-672.92,39.28-32.28,102.52-29.8,178.67,1l74.19,37.12-73.72-50.38C227.92,35.39,133.46,14.59,82.49,56.55Z" transform="translate(-11.72 -12.06)"/><path class="cls-4" d="M946.79,967.57c101.94-83.88-8.85-386.8-247.43-676.55-89.47-108.68-184.2-200.08-273-267.43l-16.8-11.53,42.92,35.12c60.5,54,121.79,117.58,180.56,189C868,521.59,973.7,822.88,869,909.07c-39.29,32.33-102.53,29.8-178.67-1.05L616.11,870.9l73.72,50.38C801.4,988.73,895.87,1009.53,946.79,967.57Z" transform="translate(-11.72 -12.06)"/><polygon class="cls-5" points="539.41 477.57 491.5 529.17 443.58 477.57 539.41 477.57"/><line class="cls-6" x1="491.57" y1="513.9" x2="491.57" y2="559.48"/><polygon class="cls-5" points="491.73 547.81 538.59 600.47 525.16 600.47 491.73 562.87 458.29 600.47 444.86 600.47 491.73 547.81"/><path class="cls-5" d="M284.9,502.27l108.15,27v1.15l-108.36-27Zm438.73,0,.21,1.1-108.37,27v-1.15ZM615.47,584.72l108.37,27-.21,1.11-108.16-27Zm-222.42,0v1.16l-108.15,27-.21-1.11Z" transform="translate(-11.72 -12.06)"/><path class="cls-7" d="M284.9,502.27l108.15,27v1.15l-108.36-27Zm438.73,0,.21,1.1-108.37,27v-1.15ZM615.47,584.72l108.37,27-.21,1.11-108.16-27Zm-222.42,0v1.16l-108.15,27-.21-1.11Z" transform="translate(-11.72 -12.06)"/><path class="cls-5" d="M315.91,416.23c-.1-27.8,20.43-50.39,45.81-50.49s46,22.43,46.13,50.23S387.42,466.36,362,466.41,316,444,315.91,416.23Z" transform="translate(-11.72 -12.06)"/><path class="cls-5" d="M597.47,416.49c-.11-27.69,20.37-50.23,45.7-50.28s45.92,22.27,46,50-20.37,50.23-45.7,50.28S597.52,444.19,597.47,416.49Z" transform="translate(-11.72 -12.06)"/></svg>